<?xml version="1.0"?>
<svg xmlns="http://www.w3.org/2000/svg" viewBox="0 0 428 378" width="428" height="378">
<path d="M0.0 189.0 L0.0 0.0 L214.0 0.0 L428.0 0.0 L428.0 189.0 L428.0 378.0 L270.5 378.0 C183.9 378.0 112.9 377.7 112.9 377.2 C112.8 376.8 112.6 375.6 112.4 374.5 C112.3 373.4 111.8 371.4 111.5 370.0 C111.1 368.6 110.7 366.8 110.6 366.0 C110.5 365.1 110.0 363.9 109.6 363.2 C109.2 362.5 109.1 361.6 109.4 361.3 C109.7 361.0 109.5 359.9 109.0 359.0 C108.5 358.0 107.8 355.6 107.6 353.6 C107.4 351.7 106.9 349.7 106.6 349.2 C106.3 348.7 105.8 346.8 105.6 344.9 C105.3 343.0 104.8 340.4 104.5 339.0 C103.1 333.9 103.4 332.4 106.8 326.5 C114.5 313.1 120.5 305.4 130.9 295.4 C143.4 283.3 161.4 275.1 180.9 272.6 C193.2 270.9 218.2 270.7 238.0 272.0 C255.5 273.2 288.8 273.5 294.7 272.5 C308.2 270.3 322.4 266.0 329.0 262.2 C336.2 258.0 352.4 245.5 358.6 239.2 C364.8 233.0 371.1 223.8 375.6 214.8 L378.4 209.1 L369.6 170.3 C364.8 149.0 360.4 129.9 360.0 128.0 C359.6 126.1 358.7 122.0 358.0 119.0 C354.6 103.3 342.5 50.9 338.6 34.9 C336.7 27.1 334.7 20.3 334.2 19.8 C333.3 18.9 332.1 20.4 323.6 33.7 C308.5 57.3 288.9 71.6 264.5 76.9 C250.2 80.0 241.2 80.2 175.3 78.4 C145.4 77.6 135.5 78.4 122.6 82.5 C107.2 87.4 92.2 96.8 80.3 109.1 C73.3 116.4 72.3 117.6 65.2 128.1 C61.3 133.8 59.4 135.8 57.7 135.8 C54.9 135.8 52.6 136.3 52.0 137.1 C51.7 137.5 49.8 138.6 47.8 139.7 C45.7 140.8 44.3 141.9 44.5 142.2 C44.7 142.4 45.2 144.2 45.5 146.0 C45.7 147.9 47.4 155.3 49.0 162.5 C50.7 169.7 52.3 176.6 52.5 178.0 C52.7 179.4 53.6 182.9 54.4 185.9 C55.2 188.9 55.7 191.7 55.4 192.1 C55.2 192.5 55.5 193.2 56.1 193.5 C56.6 193.9 56.9 194.8 56.6 195.6 C56.3 196.3 56.5 197.2 57.0 197.5 C57.5 197.8 57.9 198.8 57.9 199.8 C58.0 201.8 58.7 206.5 59.0 206.5 C59.2 206.5 59.4 207.5 59.6 208.7 C59.8 210.0 60.2 212.0 60.4 213.2 C60.6 214.5 60.9 215.5 61.0 215.5 C61.1 215.5 61.4 216.5 61.6 217.7 C61.8 219.0 62.2 221.0 62.4 222.2 C62.6 223.5 62.9 224.5 63.0 224.5 C63.3 224.5 64.0 228.4 64.2 231.0 C64.2 231.8 64.7 233.0 65.2 233.7 C65.7 234.4 65.9 235.4 65.6 235.9 C65.2 236.4 65.5 237.2 66.1 237.5 C66.6 237.9 66.9 238.9 66.6 239.7 C66.2 240.6 66.5 241.9 67.1 242.7 C67.8 243.4 68.0 244.3 67.7 244.7 C67.3 245.0 67.4 245.8 68.0 246.5 C68.5 247.1 69.1 249.1 69.3 251.0 C69.5 252.9 70.0 255.2 70.4 256.0 C70.7 256.8 71.1 258.9 71.3 260.5 C71.5 262.1 71.9 264.2 72.3 265.0 C73.1 266.8 83.0 310.3 83.5 314.2 C83.7 315.7 84.1 317.3 84.4 317.8 C84.7 318.3 85.2 320.2 85.5 322.1 C85.7 324.0 87.5 332.0 89.4 340.0 C91.3 348.0 92.7 354.7 92.4 354.9 C92.2 355.1 92.4 355.8 93.0 356.5 C93.5 357.1 94.1 359.1 94.3 361.0 C94.5 362.9 95.0 365.2 95.3 366.0 C96.5 368.9 97.9 376.4 97.4 377.2 C97.1 377.6 75.1 378.0 48.4 378.0 L0.0 378.0 L0.0 189.0 Z" fill="#F2C744" stroke="none"/>
</svg>
