<svg xmlns="http://www.w3.org/2000/svg" viewBox="0 0 50 36" width="50" height="36">
  <path d="M 10.92 36.10 C 22.33 36.10 15.19 36.07 15.19 36.02 C 15.18 35.98 15.16 35.86 15.14 35.75 C 15.13 35.64 15.07 35.44 15.04 35.30 C 15.00 35.16 14.96 34.97 14.95 34.89 C 14.94 34.80 14.89 34.68 14.85 34.61 C 14.81 34.54 14.80 34.45 14.83 34.42 C 14.86 34.39 14.84 34.28 14.79 34.19 C 14.74 34.09 14.67 33.85 14.65 33.65 C 14.63 33.46 14.58 33.25 14.55 33.20 C 14.52 33.15 14.47 32.96 14.45 32.77 C 14.42 32.58 14.37 32.32 14.34 32.18 C 14.20 31.67 14.23 31.52 14.57 30.92 C 15.35 29.57 15.95 28.80 17.00 27.79 C 18.25 26.58 20.06 25.75 22.02 25.50 C 23.26 25.33 25.77 25.31 27.77 25.44 C 29.53 25.56 32.87 25.59 33.47 25.49 C 34.82 25.27 36.25 24.84 36.92 24.46 C 37.64 24.03 39.27 22.78 39.89 22.14 C 40.52 21.52 41.15 20.59 41.60 19.69 L 41.88 19.12 L 41.00 15.21 C 40.52 13.07 40.07 11.15 40.03 10.96 C 39.99 10.77 39.90 10.36 39.83 10.06 C 39.49 8.48 38.27 3.21 37.88 1.60 C 37.69 0.81 37.49 0.13 37.44 0.08 C 37.35 -0.01 37.23 0.14 36.37 1.48 C 34.85 3.85 32.88 5.29 30.43 5.82 C 28.99 6.13 28.09 6.15 21.46 5.97 C 18.45 5.89 17.46 5.97 16.16 6.39 C 14.61 6.88 13.10 7.82 11.91 9.06 C 11.20 9.79 11.10 9.92 10.39 10.97 C 10.00 11.54 9.81 11.75 9.63 11.75 C 9.35 11.75 9.12 11.80 9.06 11.88 C 9.03 11.92 8.84 12.03 8.64 12.14 C 8.43 12.25 8.29 12.36 8.31 12.39 C 8.33 12.41 8.38 12.59 8.41 12.77 C 8.43 12.96 8.60 13.71 8.76 14.43 C 8.93 15.15 9.09 15.85 9.11 15.99 C 9.13 16.13 9.22 16.48 9.30 16.78 C 9.38 17.08 9.43 17.37 9.40 17.41 C 9.38 17.45 9.41 17.52 9.47 17.55 C 9.52 17.59 9.55 17.68 9.52 17.76 C 9.49 17.83 9.51 17.92 9.56 17.95 C 9.61 17.98 9.65 18.08 9.65 18.18 C 9.66 18.38 9.74 18.85 9.77 18.85 C 9.79 18.85 9.81 18.96 9.83 19.08 C 9.85 19.21 9.89 19.41 9.91 19.53 C 9.93 19.66 9.96 19.76 9.97 19.76 C 9.98 19.76 10.01 19.86 10.03 19.98 C 10.05 20.11 10.09 20.31 10.11 20.43 C 10.13 20.56 10.16 20.66 10.17 20.66 C 10.20 20.66 10.27 21.06 10.29 21.32 C 10.29 21.40 10.34 21.52 10.39 21.59 C 10.44 21.66 10.46 21.76 10.43 21.81 C 10.39 21.86 10.42 21.94 10.48 21.97 C 10.53 22.01 10.56 22.11 10.53 22.19 C 10.49 22.28 10.52 22.41 10.58 22.49 C 10.65 22.57 10.67 22.66 10.64 22.70 C 10.60 22.73 10.61 22.81 10.67 22.88 C 10.72 22.94 10.78 23.14 10.80 23.33 C 10.82 23.52 10.87 23.75 10.91 23.83 C 10.94 23.91 10.98 24.12 11.00 24.28 C 11.02 24.45 11.06 24.66 11.10 24.74 C 11.18 24.92 12.18 29.29 12.23 29.68 C 12.25 29.84 12.29 30.00 12.32 30.05 C 12.35 30.10 12.40 30.29 12.43 30.48 C 12.45 30.67 12.63 31.47 12.82 32.28 C 13.01 33.08 13.15 33.76 13.12 33.78 C 13.10 33.80 13.12 33.87 13.18 33.94 C 13.23 34.00 13.29 34.20 13.32 34.39 C 13.34 34.58 13.39 34.81 13.42 34.89 C 13.54 35.19 13.68 35.94 13.63 36.02 C 13.60 36.06 11.38 36.10 8.70 36.10 L 3.83 36.10 L 3.83 17.09 Z" fill="#F2C744" stroke="none"/>
</svg>