<?xml version="1.0" standalone="no"?>
<!DOCTYPE svg PUBLIC "-//W3C//DTD SVG 20010904//EN"
 "http://www.w3.org/TR/2001/REC-SVG-20010904/DTD/svg10.dtd">
<svg version="1.0" xmlns="http://www.w3.org/2000/svg"
 width="116.000000pt" height="68.000000pt" viewBox="0 0 116.000000 68.000000"
 preserveAspectRatio="xMidYMid meet">
<g transform="translate(0.000000,68.000000) scale(0.100000,-0.100000)"
fill="#000000" stroke="none">
<path d="M246 483 c-6 -14 -5 -15 5 -6 7 7 10 15 7 18 -3 3 -9 -2 -12 -12z"/>
<path d="M312 491 c-11 -7 -11 -9 2 -14 10 -4 16 -1 16 8 0 17 -1 17 -18 6z"/>
<path d="M278 468 c5 -5 16 -8 23 -6 8 3 3 7 -10 11 -17 4 -21 3 -13 -5z"/>
<path d="M730 473 c-14 -2 -69 -15 -122 -29 -111 -28 -155 -30 -203 -10 l-35
15 0 -168 0 -168 25 -11 c41 -19 132 -14 240 13 113 28 161 31 208 12 l32 -14
0 169 0 168 -30 9 c-44 14 -87 19 -115 14z m91 -28 c19 -8 27 -14 19 -15 -11
0 -12 -2 -2 -8 9 -6 12 -42 10 -139 -2 -72 -6 -126 -10 -119 -6 8 -8 8 -8 -1
0 -7 -7 -10 -15 -7 -8 4 -13 10 -10 14 3 5 0 12 -6 16 -7 4 -9 3 -5 -4 7 -12
-27 -19 -98 -21 -27 0 -52 -4 -55 -9 -18 -26 -138 -48 -205 -38 l-44 7 0 145
0 144 48 -2 c26 -2 46 -6 43 -10 -2 -5 3 -8 11 -8 9 0 16 5 16 11 0 6 7 8 16
5 9 -4 22 -2 28 3 6 5 27 11 46 13 19 1 38 7 41 11 3 4 30 10 59 13 29 2 56 6
58 9 9 9 28 6 63 -10z m-144 -301 c-3 -3 -12 -4 -19 -1 -8 3 -5 6 6 6 11 1 17
-2 13 -5z"/>
<path d="M797 439 c7 -7 15 -10 18 -7 3 3 -2 9 -12 12 -14 6 -15 5 -6 -5z"/>
<path d="M681 436 c2 -2 18 -6 34 -10 22 -5 26 -4 15 4 -14 9 -59 15 -49 6z"/>
<path d="M588 403 c7 -3 16 -2 19 1 4 3 -2 6 -13 5 -11 0 -14 -3 -6 -6z"/>
<path d="M648 173 c7 -3 16 -2 19 1 4 3 -2 6 -13 5 -11 0 -14 -3 -6 -6z"/>
<path d="M267 449 c7 -7 15 -10 18 -7 3 3 -2 9 -12 12 -14 6 -15 5 -6 -5z"/>
<path d="M310 225 c0 -218 1 -225 20 -225 19 0 20 7 20 225 0 218 -1 225 -20
225 -19 0 -20 -7 -20 -225z"/>
<path d="M788 113 c6 -2 18 -2 25 0 6 3 1 5 -13 5 -14 0 -19 -2 -12 -5z"/>
<path d="M548 43 c7 -3 16 -2 19 1 4 3 -2 6 -13 5 -11 0 -14 -3 -6 -6z"/>
</g>
</svg>
